<svg width="108" height="20" viewBox="0 0 108 20" fill="none" xmlns="http://www.w3.org/2000/svg">
<path d="M6.50977 0.465824C8.80375 0.465824 10.8081 0.992894 12.5234 2.04687C14.2594 3.0802 15.5415 4.41323 16.3682 6.04589C17.1946 7.65775 17.6074 9.41429 17.6074 11.3154C17.6074 12.7207 17.3592 14.0741 16.8633 15.376C16.4313 16.4919 15.8422 17.5058 15.0967 18.418C13.9987 18.4848 12.91 18.5533 11.8311 18.625C13.0105 17.8118 13.8928 16.8227 14.4766 15.6553C15.1379 14.312 15.4687 12.8654 15.4687 11.3154C15.4687 8.87678 14.6628 6.77912 13.0508 5.02246C11.4388 3.24512 9.20649 2.35644 6.35449 2.35644H2.10742V19.3594C1.39964 19.4195 0.697122 19.4807 0 19.543V0.465824H6.50977ZM99.8008 0C101.908 0 103.584 0.589574 104.824 1.76757C106.084 2.92488 106.714 4.50622 106.714 6.51074H104.605C104.605 5.02274 104.171 3.87533 103.303 3.06933C102.456 2.24282 101.269 1.82917 99.7393 1.8291C98.3546 1.8291 97.238 2.18112 96.3906 2.88379C95.5642 3.56574 95.1504 4.47485 95.1504 5.61132C95.1504 6.66532 95.4812 7.53382 96.1426 8.21582C96.8039 8.89778 97.8273 9.43449 99.2119 9.82719L102.746 10.8818C105.68 11.7085 107.147 13.6093 107.147 16.585C107.147 17.3831 107.028 18.1115 106.791 18.7695C106.075 18.7193 105.355 18.6702 104.631 18.6221C104.924 18.0612 105.072 17.4034 105.072 16.6475C105.072 14.5809 103.821 13.1959 101.321 12.4932L97.6621 11.377C94.5828 10.5296 93.043 8.64935 93.043 5.73535C93.043 4.02005 93.6633 2.63503 94.9033 1.58105C96.1639 0.527324 97.7964 1.3e-05 99.8008 0ZM27.3564 0.465824C29.423 0.465824 31.1284 1.15742 32.4717 2.54199C33.8357 3.92665 34.5176 5.69441 34.5176 7.84375C34.5175 9.55899 34.0732 11.047 33.1846 12.3076C32.2959 13.5682 31.1177 14.4358 29.6504 14.9111L31.374 17.6357C30.59 17.6638 29.8094 17.6932 29.0322 17.7236L27.4805 15.252H21.9004V18.042C21.1945 18.0772 20.492 18.1132 19.793 18.1504V0.465824H27.3564ZM91.2627 2.35644H81.2187V10.416H91.2627V12.3389H81.2187V17.5068C80.5184 17.4857 79.8156 17.4656 79.1104 17.4463V0.465824H91.2627V2.35644ZM46.6865 0C50.0551 6.4e-05 52.7521 1.10611 54.7773 3.31738C56.8233 5.50804 57.8467 8.17411 57.8467 11.3154C57.8467 13.4896 57.355 15.4403 56.375 17.169C55.5364 17.171 54.7001 17.1741 53.8662 17.1787C55.0713 15.5059 55.6758 13.5526 55.6758 11.3154C55.6758 8.69082 54.8601 6.46903 53.2275 4.65039C51.5949 2.81112 49.4144 1.89166 46.6865 1.8916C43.9586 1.8916 41.7782 2.81116 40.1455 4.65039C38.5128 6.46905 37.7069 8.69076 37.7275 11.3154C37.709 13.6467 38.3545 15.6703 39.6611 17.3887C38.8206 17.409 37.9833 17.4301 37.1494 17.4531C36.0689 15.6548 35.5264 13.6099 35.5264 11.3154C35.5264 8.17409 36.5391 5.50804 38.5645 3.31738C40.6104 1.10614 43.3179 0 46.6865 0ZM75.3857 17.3545C74.7162 17.3396 74.0446 17.3257 73.3711 17.3125V0.465824H75.3857V17.3545ZM72.5322 17.2959C71.751 17.2815 70.9671 17.2689 70.1807 17.2568L62.1797 3.90625V17.1758C61.5097 17.1724 60.8381 17.1706 60.165 17.169V0.465824H62.4277L72.5322 17.2959ZM21.9004 13.3301H27.2637C28.7516 13.33 29.9809 12.8135 30.9521 11.7803C31.9234 10.747 32.4091 9.43489 32.4092 7.84375C32.4092 6.25241 31.9235 4.93958 30.9521 3.90625C29.9809 2.87314 28.7515 2.35648 27.2637 2.35644H21.9004V13.3301Z" fill="#0C122A" style="fill:#0C122A;fill:color(display-p3 0.0471 0.0706 0.1647);fill-opacity:1;"/>
</svg>
