<svg width="16" height="20" viewBox="0 0 16 20" fill="none" xmlns="http://www.w3.org/2000/svg">
<path fill-rule="evenodd" clip-rule="evenodd" d="M8 2C7.20435 2 6.44129 2.31607 5.87868 2.87868C5.31607 3.44129 5 4.20435 5 5C5 5.79565 5.31607 6.55871 5.87868 7.12132C6.44129 7.68393 7.20435 8 8 8C8.79565 8 9.55871 7.68393 10.1213 7.12132C10.6839 6.55871 11 5.79565 11 5C11 4.20435 10.6839 3.44129 10.1213 2.87868C9.55871 2.31607 8.79565 2 8 2ZM4.46447 1.46447C5.40215 0.526784 6.67392 0 8 0C9.32608 0 10.5979 0.526784 11.5355 1.46447C12.4732 2.40215 13 3.67392 13 5C13 6.32608 12.4732 7.59785 11.5355 8.53553C10.5979 9.47322 9.32608 10 8 10C6.67392 10 5.40215 9.47322 4.46447 8.53553C3.52678 7.59785 3 6.32608 3 5C3 3.67392 3.52678 2.40215 4.46447 1.46447ZM2.34315 13.3431C3.84344 11.8429 5.87827 11 8 11C10.1217 11 12.1566 11.8429 13.6569 13.3431C15.1571 14.8434 16 16.8783 16 19C16 19.5523 15.5523 20 15 20H1C0.734784 20 0.48043 19.8946 0.292893 19.7071C0.105357 19.5196 0 19.2652 0 19C0 16.8783 0.842855 14.8434 2.34315 13.3431ZM8 13C6.4087 13 4.88258 13.6321 3.75736 14.7574C2.87067 15.6441 2.29016 16.7797 2.08389 18H13.9161C13.7098 16.7797 13.1293 15.6441 12.2426 14.7574C11.1174 13.6321 9.5913 13 8 13Z" fill="#9EA0AA" style="fill:#9EA0AA;fill:color(display-p3 0.6196 0.6275 0.6667);fill-opacity:1;"/>
</svg>
